<mxfile host="app.diagrams.net" modified="2023-12-25T16:52:50.921Z" agent="Mozilla/5.0 (Windows NT 10.0; Win64; x64) AppleWebKit/537.36 (KHTML, like Gecko) Chrome/120.0.0.0 Safari/537.36" etag="pdM8lzIlMUeep5SYzLS3" version="22.1.11" type="github">
  <diagram name="Page-1" id="cibeT_CmQrJjmUiH4mqD">
    <mxGraphModel dx="1601" dy="878" grid="1" gridSize="10" guides="1" tooltips="1" connect="1" arrows="1" fold="1" page="1" pageScale="1" pageWidth="827" pageHeight="1169" math="0" shadow="0">
      <root>
        <mxCell id="0" />
        <mxCell id="1" parent="0" />
        <mxCell id="2ih6DXHKSrbknL4vDnor-1" value="return error + code http 403" style="html=1;verticalAlign=bottom;endArrow=open;dashed=1;endSize=8;labelBackgroundColor=none;fontFamily=Verdana;fontSize=12;entryX=1.5;entryY=0.57;entryDx=0;entryDy=0;entryPerimeter=0;" edge="1" parent="1" source="2ih6DXHKSrbknL4vDnor-3">
          <mxGeometry x="0.0312" y="29" relative="1" as="geometry">
            <mxPoint x="746" y="1161.02" as="targetPoint" />
            <mxPoint x="1016" y="1161" as="sourcePoint" />
            <mxPoint as="offset" />
          </mxGeometry>
        </mxCell>
        <mxCell id="2ih6DXHKSrbknL4vDnor-2" value="Systeme" style="shape=umlLifeline;perimeter=lifelinePerimeter;whiteSpace=wrap;html=1;container=1;collapsible=0;recursiveResize=0;outlineConnect=0;rounded=1;shadow=0;comic=0;labelBackgroundColor=none;strokeWidth=1;fontFamily=Verdana;fontSize=12;align=center;fillColor=#dae8fc;strokeColor=#6c8ebf;" vertex="1" parent="1">
          <mxGeometry x="980" y="730" width="100" height="830" as="geometry" />
        </mxCell>
        <mxCell id="2ih6DXHKSrbknL4vDnor-3" value="" style="html=1;points=[];perimeter=orthogonalPerimeter;rounded=0;shadow=0;comic=0;labelBackgroundColor=none;strokeWidth=1;fontFamily=Verdana;fontSize=12;align=center;fillColor=#dae8fc;strokeColor=#6c8ebf;" vertex="1" parent="2ih6DXHKSrbknL4vDnor-2">
          <mxGeometry x="45" y="202" width="10" height="428" as="geometry" />
        </mxCell>
        <mxCell id="2ih6DXHKSrbknL4vDnor-4" value="" style="html=1;points=[[0,0,0,0,5],[0,1,0,0,-5],[1,0,0,0,5],[1,1,0,0,-5]];perimeter=orthogonalPerimeter;outlineConnect=0;targetShapes=umlLifeline;portConstraint=eastwest;newEdgeStyle={&quot;curved&quot;:0,&quot;rounded&quot;:0};fillColor=#dae8fc;strokeColor=#6c8ebf;" vertex="1" parent="2ih6DXHKSrbknL4vDnor-2">
          <mxGeometry x="55" y="361" width="10" height="50" as="geometry" />
        </mxCell>
        <mxCell id="2ih6DXHKSrbknL4vDnor-5" style="edgeStyle=orthogonalEdgeStyle;rounded=0;orthogonalLoop=1;jettySize=auto;html=1;curved=0;exitX=1;exitY=0;exitDx=0;exitDy=5;exitPerimeter=0;" edge="1" parent="2ih6DXHKSrbknL4vDnor-2" source="2ih6DXHKSrbknL4vDnor-4" target="2ih6DXHKSrbknL4vDnor-4">
          <mxGeometry relative="1" as="geometry" />
        </mxCell>
        <mxCell id="2ih6DXHKSrbknL4vDnor-6" value="Choisir un projet et &lt;br&gt;appuyer sur bouton détails&amp;nbsp;" style="html=1;verticalAlign=bottom;endArrow=block;labelBackgroundColor=none;fontFamily=Verdana;fontSize=12;edgeStyle=elbowEdgeStyle;elbow=vertical;" edge="1" parent="1">
          <mxGeometry x="0.0285" y="-43" relative="1" as="geometry">
            <mxPoint x="751" y="936.5" as="sourcePoint" />
            <mxPoint x="1021" y="937" as="targetPoint" />
            <mxPoint as="offset" />
          </mxGeometry>
        </mxCell>
        <mxCell id="2ih6DXHKSrbknL4vDnor-7" value="Ref" style="shape=umlFrame;whiteSpace=wrap;html=1;pointerEvents=0;fillColor=#dae8fc;strokeColor=#6c8ebf;" vertex="1" parent="1">
          <mxGeometry x="649" y="811" width="420" height="40" as="geometry" />
        </mxCell>
        <mxCell id="2ih6DXHKSrbknL4vDnor-8" value="S&#39;authentifier" style="text;html=1;align=center;verticalAlign=middle;resizable=0;points=[];autosize=1;strokeColor=none;fillColor=none;" vertex="1" parent="1">
          <mxGeometry x="826" y="821" width="90" height="30" as="geometry" />
        </mxCell>
        <mxCell id="2ih6DXHKSrbknL4vDnor-9" value="token invalid or&lt;br&gt;&amp;nbsp;role != admin" style="text;html=1;align=center;verticalAlign=middle;resizable=0;points=[];autosize=1;strokeColor=none;fillColor=none;" vertex="1" parent="1">
          <mxGeometry x="631" y="1167" width="100" height="40" as="geometry" />
        </mxCell>
        <mxCell id="2ih6DXHKSrbknL4vDnor-10" value="redirection vers la page &lt;br&gt;détail projet" style="html=1;verticalAlign=bottom;endArrow=open;dashed=1;endSize=8;labelBackgroundColor=none;fontFamily=Verdana;fontSize=12;entryX=1.5;entryY=0.57;entryDx=0;entryDy=0;entryPerimeter=0;exitX=-0.4;exitY=0.633;exitDx=0;exitDy=0;exitPerimeter=0;" edge="1" parent="1">
          <mxGeometry x="-0.037" y="38" relative="1" as="geometry">
            <mxPoint x="750" y="991.8999999999999" as="targetPoint" />
            <mxPoint x="1020" y="991.8799999999999" as="sourcePoint" />
            <mxPoint as="offset" />
          </mxGeometry>
        </mxCell>
        <mxCell id="2ih6DXHKSrbknL4vDnor-11" value="appuyer sur la bouton addTask&lt;br&gt;et remplir formulaire" style="html=1;verticalAlign=bottom;endArrow=block;labelBackgroundColor=none;fontFamily=Verdana;fontSize=12;edgeStyle=elbowEdgeStyle;elbow=vertical;" edge="1" parent="1">
          <mxGeometry x="-0.0139" y="-43" relative="1" as="geometry">
            <mxPoint x="747" y="1076.5" as="sourcePoint" />
            <mxPoint x="1020" y="1077" as="targetPoint" />
            <mxPoint as="offset" />
          </mxGeometry>
        </mxCell>
        <mxCell id="2ih6DXHKSrbknL4vDnor-12" value="vérifier token + role" style="text;html=1;align=center;verticalAlign=middle;resizable=0;points=[];autosize=1;strokeColor=none;fillColor=none;" vertex="1" parent="1">
          <mxGeometry x="1060" y="1090" width="130" height="30" as="geometry" />
        </mxCell>
        <mxCell id="2ih6DXHKSrbknL4vDnor-13" value="alt" style="shape=umlFrame;whiteSpace=wrap;html=1;pointerEvents=0;fillColor=#dae8fc;strokeColor=#6c8ebf;" vertex="1" parent="1">
          <mxGeometry x="631" y="1140" width="460" height="290" as="geometry" />
        </mxCell>
        <mxCell id="2ih6DXHKSrbknL4vDnor-14" value="" style="line;strokeWidth=1;fillColor=none;align=left;verticalAlign=middle;spacingTop=-1;spacingLeft=3;spacingRight=3;rotatable=0;labelPosition=right;points=[];portConstraint=eastwest;strokeColor=inherit;" vertex="1" parent="1">
          <mxGeometry x="631" y="1216" width="460" height="8" as="geometry" />
        </mxCell>
        <mxCell id="2ih6DXHKSrbknL4vDnor-15" value="" style="html=1;points=[[0,0,0,0,5],[0,1,0,0,-5],[1,0,0,0,5],[1,1,0,0,-5]];perimeter=orthogonalPerimeter;outlineConnect=0;targetShapes=umlLifeline;portConstraint=eastwest;newEdgeStyle={&quot;curved&quot;:0,&quot;rounded&quot;:0};fillColor=#dae8fc;strokeColor=#6c8ebf;" vertex="1" parent="1">
          <mxGeometry x="1035" y="1240" width="10" height="50" as="geometry" />
        </mxCell>
        <mxCell id="2ih6DXHKSrbknL4vDnor-16" value="alt" style="shape=umlFrame;whiteSpace=wrap;html=1;pointerEvents=0;fillColor=#dae8fc;strokeColor=#6c8ebf;" vertex="1" parent="1">
          <mxGeometry x="650.5" y="1230" width="421" height="150" as="geometry" />
        </mxCell>
        <mxCell id="2ih6DXHKSrbknL4vDnor-17" value="Verification &lt;br&gt;des données" style="text;html=1;align=center;verticalAlign=middle;resizable=0;points=[];autosize=1;strokeColor=none;fillColor=none;" vertex="1" parent="1">
          <mxGeometry x="1060" y="1245" width="90" height="40" as="geometry" />
        </mxCell>
        <mxCell id="2ih6DXHKSrbknL4vDnor-18" style="edgeStyle=orthogonalEdgeStyle;rounded=0;orthogonalLoop=1;jettySize=auto;html=1;curved=0;exitX=1;exitY=0;exitDx=0;exitDy=5;exitPerimeter=0;" edge="1" parent="1" source="2ih6DXHKSrbknL4vDnor-15" target="2ih6DXHKSrbknL4vDnor-15">
          <mxGeometry relative="1" as="geometry" />
        </mxCell>
        <mxCell id="2ih6DXHKSrbknL4vDnor-19" value="return error + code http 422" style="html=1;verticalAlign=bottom;endArrow=open;dashed=1;endSize=8;labelBackgroundColor=none;fontFamily=Verdana;fontSize=12;entryX=1.5;entryY=0.57;entryDx=0;entryDy=0;entryPerimeter=0;exitX=-0.232;exitY=0.925;exitDx=0;exitDy=0;exitPerimeter=0;" edge="1" parent="1">
          <mxGeometry x="0.0312" y="29" relative="1" as="geometry">
            <mxPoint x="749" y="1282.02" as="targetPoint" />
            <mxPoint x="1026" y="1282" as="sourcePoint" />
            <mxPoint as="offset" />
          </mxGeometry>
        </mxCell>
        <mxCell id="2ih6DXHKSrbknL4vDnor-20" value="task invalide" style="text;html=1;align=center;verticalAlign=middle;resizable=0;points=[];autosize=1;strokeColor=none;fillColor=none;" vertex="1" parent="1">
          <mxGeometry x="650" y="1275" width="90" height="30" as="geometry" />
        </mxCell>
        <mxCell id="2ih6DXHKSrbknL4vDnor-21" value="" style="line;strokeWidth=1;fillColor=none;align=left;verticalAlign=middle;spacingTop=-1;spacingLeft=3;spacingRight=3;rotatable=0;labelPosition=right;points=[];portConstraint=eastwest;strokeColor=inherit;" vertex="1" parent="1">
          <mxGeometry x="650" y="1320" width="420" height="8" as="geometry" />
        </mxCell>
        <mxCell id="2ih6DXHKSrbknL4vDnor-22" value="succès du message + code http 201" style="html=1;verticalAlign=bottom;endArrow=open;dashed=1;endSize=8;labelBackgroundColor=none;fontFamily=Verdana;fontSize=12;entryX=1.5;entryY=0.57;entryDx=0;entryDy=0;entryPerimeter=0;exitX=-0.232;exitY=0.925;exitDx=0;exitDy=0;exitPerimeter=0;" edge="1" parent="1">
          <mxGeometry x="-0.018" y="40" relative="1" as="geometry">
            <mxPoint x="749" y="1360.02" as="targetPoint" />
            <mxPoint x="1026" y="1360" as="sourcePoint" />
            <mxPoint as="offset" />
          </mxGeometry>
        </mxCell>
        <mxCell id="2ih6DXHKSrbknL4vDnor-23" value="Admin" style="shape=umlLifeline;perimeter=lifelinePerimeter;whiteSpace=wrap;html=1;container=1;collapsible=0;recursiveResize=0;outlineConnect=0;rounded=1;shadow=0;comic=0;labelBackgroundColor=none;strokeWidth=1;fontFamily=Verdana;fontSize=12;align=center;fillColor=#dae8fc;strokeColor=#6c8ebf;" vertex="1" parent="1">
          <mxGeometry x="693" y="730" width="100" height="840" as="geometry" />
        </mxCell>
        <mxCell id="2ih6DXHKSrbknL4vDnor-24" value="" style="html=1;points=[];perimeter=orthogonalPerimeter;rounded=0;shadow=0;comic=0;labelBackgroundColor=none;strokeWidth=1;fontFamily=Verdana;fontSize=12;align=center;fillColor=#dae8fc;strokeColor=#6c8ebf;" vertex="1" parent="2ih6DXHKSrbknL4vDnor-23">
          <mxGeometry x="45" y="198" width="10" height="462" as="geometry" />
        </mxCell>
        <mxCell id="2ih6DXHKSrbknL4vDnor-25" value="Ref" style="shape=umlFrame;whiteSpace=wrap;html=1;pointerEvents=0;fillColor=#dae8fc;strokeColor=#6c8ebf;" vertex="1" parent="1">
          <mxGeometry x="652" y="870" width="420" height="42" as="geometry" />
        </mxCell>
        <mxCell id="2ih6DXHKSrbknL4vDnor-26" value="consulter les projets" style="text;html=1;align=center;verticalAlign=middle;resizable=0;points=[];autosize=1;strokeColor=none;fillColor=none;" vertex="1" parent="1">
          <mxGeometry x="807" y="876" width="130" height="30" as="geometry" />
        </mxCell>
      </root>
    </mxGraphModel>
  </diagram>
</mxfile>
